<?xml version="1.0" encoding="UTF-8" standalone="no"?>
<!-- Created with Inkscape (http://www.inkscape.org/) -->

<svg
   xmlns:dc="http://purl.org/dc/elements/1.1/"
   xmlns:cc="http://creativecommons.org/ns#"
   xmlns:rdf="http://www.w3.org/1999/02/22-rdf-syntax-ns#"
   xmlns:svg="http://www.w3.org/2000/svg"
   xmlns="http://www.w3.org/2000/svg"
   xmlns:sodipodi="http://sodipodi.sourceforge.net/DTD/sodipodi-0.dtd"
   xmlns:inkscape="http://www.inkscape.org/namespaces/inkscape"
   version="1.1"
   id="svg4237"
   width="1333.3333"
   height="258.66666"
   viewBox="0 0 1333.3333 258.66666"
   sodipodi:docname="line.svg"
   inkscape:version="0.92.3 (2405546, 2018-03-11)">
  <metadata
     id="metadata4243">
    <rdf:RDF>
      <cc:Work
         rdf:about="">
        <dc:format>image/svg+xml</dc:format>
        <dc:type
           rdf:resource="http://purl.org/dc/dcmitype/StillImage" />
        <dc:title></dc:title>
      </cc:Work>
    </rdf:RDF>
  </metadata>
  <defs
     id="defs4241" />
  <sodipodi:namedview
     pagecolor="#ffffff"
     bordercolor="#666666"
     borderopacity="1"
     objecttolerance="10"
     gridtolerance="10"
     guidetolerance="10"
     inkscape:pageopacity="0"
     inkscape:pageshadow="2"
     inkscape:window-width="1366"
     inkscape:window-height="705"
     id="namedview4239"
     showgrid="false"
     inkscape:zoom="0.27075002"
     inkscape:cx="666.66663"
     inkscape:cy="129.33333"
     inkscape:window-x="-8"
     inkscape:window-y="-8"
     inkscape:window-maximized="1"
     inkscape:current-layer="svg4237" />
  <g
     id="g4247"
     transform="translate(7.3868831,3.6934484)">
    <path
       style="fill:#fefefe;stroke-width:1.33333325"
       d="M 0,129.33333 V 0 H 666.66665 1333.3333 V 129.33333 258.66666 H 666.66665 0 Z"
       id="path4263"
       inkscape:connector-curvature="0" />
    <path
       style="fill:#f9f9f9;stroke-width:1.33333325"
       d="m 232.69977,255.66666 c -0.3764,-1.65 -0.83783,-6.87393 -1.0254,-11.60873 l -0.34104,-8.60874 -6.27107,-2.23828 c -10.56936,-3.77245 -13.60767,-6.9168 -24.36081,-25.21092 -6.77924,-11.5334 -10.35421,-15.19101 -18.96589,-19.4043 -5.82616,-2.85048 -8.81966,-5.6742 -15.47928,-14.60139 -4.54096,-6.08713 -9.94031,-12.08006 -11.99858,-13.31762 -3.5982,-2.1635 -3.92057,-2.13 -8.37325,0.86993 -2.54703,1.71603 -6.52293,6.04389 -8.83533,9.61747 -6.21539,9.60526 -11.94943,15.16609 -18.73237,18.1665 -7.39763,3.27232 -12.48958,8.91935 -20.54737,22.78724 -7.32617,12.60872 -12.193027,17.2008 -22.660099,21.38071 -7.196939,2.874 -10.050187,3.13924 -38.318309,3.56209 -16.798298,0.25128 -31.9482977,0.104 -33.6666659,-0.32728 L 0,235.94919 v -65.28253 -65.28252 l 2.9999999,-0.68437 c 1.65,-0.3764 6.8133279,-0.83783 11.4740621,-1.0254 l 8.474063,-0.34104 8.186138,-13.583052 c 6.832603,-11.337163 9.300223,-14.258259 14.924071,-17.666667 3.705861,-2.245986 7.737893,-4.083613 8.960069,-4.083613 3.902746,0 10.788797,-7.391806 17.568598,-18.85895 8.813532,-14.906932 11.927613,-18.153075 21.74633,-22.668557 l 8.333329,-3.832374 V 13.429109 C 102.66666,-1.3731242 97.758672,0 150.66666,0 c 52.89539,0 48,-1.3640033 48,13.374273 v 9.156174 l 8.57327,4.091643 c 9.07769,4.332384 12.7848,8.219262 20.8258,21.835705 6.72916,11.395015 12.99396,18.186338 19.25018,20.868073 3.23515,1.386745 7.97736,5.275749 11.4385,9.380485 9.92374,11.769117 19.4145,21.293644 21.21813,21.293644 2.16148,0 11.01951,-9.178599 18.22744,-18.887116 4.03643,-5.436732 7.55851,-8.44377 13.01941,-11.11554 8.24018,-4.031544 11.85867,-8.084928 21.42263,-23.997342 7.35966,-12.244937 12.72568,-17.321853 21.6901,-20.521541 l 6.33454,-2.260997 0.34104,-8.608731 c 0.18757,-4.7348013 0.649,-9.9587301 1.0254,-11.6087301 L 362.71746,0 h 45.9492 45.9492 l 0.68436,2.9999999 c 0.3764,1.65 0.83782,6.8739288 1.0254,11.6087301 l 0.34104,8.608731 6.33453,2.260997 c 9.098,3.247364 14.39022,8.319546 22.1074,21.188207 9.00354,15.013719 12.82442,19.231844 21.41554,23.642004 5.44855,2.79696 9.16366,6.241624 15.33334,14.217166 4.47838,5.789209 9.77789,11.745441 11.77669,13.23607 l 3.63416,2.710235 4.85405,-3.453707 c 2.66974,-1.899539 7.03435,-6.708045 9.69916,-10.68557 5.68692,-8.488332 12.32595,-14.58034 18.86595,-17.311467 5.90157,-2.464519 11.54849,-8.865346 18.78107,-21.288487 7.75233,-13.315898 11.17637,-16.804866 20.86477,-21.260418 l 8.33333,-3.832374 V 13.429109 C 618.66665,-1.3731242 613.75866,0 666.66665,0 c 52.90799,0 48,-1.3731242 48,13.429109 v 9.211008 l 8.33333,3.832374 c 9.6884,4.455552 13.11244,7.94452 20.86477,21.260418 7.23258,12.423141 12.8795,18.823968 18.78107,21.288487 6.54,2.731127 13.17903,8.823135 18.86595,17.311467 2.66481,3.977525 7.02942,8.786031 9.69916,10.68557 l 4.85405,3.453707 3.63416,-2.710235 c 1.9988,-1.490629 7.29831,-7.446861 11.77669,-13.23607 6.16968,-7.975542 9.88479,-11.420206 15.33334,-14.217166 8.59112,-4.41016 12.412,-8.628285 21.41554,-23.642004 7.71718,-12.868661 13.0094,-17.940843 22.1074,-21.188207 l 6.33453,-2.260997 0.34104,-8.608731 c 0.18758,-4.7348013 0.649,-9.9587301 1.0254,-11.6087301 L 878.71744,0 h 45.9492 45.9492 l 0.68436,2.9999999 c 0.3764,1.65 0.83783,6.8739288 1.0254,11.6087301 l 0.34104,8.608731 6.33454,2.260997 c 8.96442,3.199688 14.33044,8.276604 21.69012,20.521541 9.5639,15.912414 13.1824,19.965798 21.4226,23.997342 5.4609,2.67177 8.983,5.678808 13.0194,11.11554 7.208,9.708517 16.066,18.887116 18.2275,18.887116 1.8036,0 11.2943,-9.524527 21.2181,-21.293644 3.4611,-4.104736 8.2033,-7.99374 11.4385,-9.380485 6.2562,-2.681735 12.521,-9.473058 19.2502,-20.868073 8.041,-13.616443 11.7481,-17.503321 20.8258,-21.835705 l 8.5732,-4.091643 v -9.156174 c 0,-14.7382763 -4.8953,-13.374273 48,-13.374273 52.908,0 48,-1.3731242 48,13.429109 v 9.211008 L 1239,26.472491 c 9.8187,4.515482 12.9328,7.761625 21.7463,22.668557 6.7798,11.467144 13.6659,18.85895 17.5686,18.85895 1.2222,0 5.2542,1.837627 8.9601,4.083613 5.6238,3.408408 8.0914,6.329504 14.924,17.666667 l 8.1862,13.583052 8.474,0.34104 c 4.6608,0.18757 9.8241,0.649 11.4741,1.0254 l 3,0.68437 v 65.28252 65.28253 l -3.1243,0.78415 c -1.7184,0.43128 -16.8684,0.57856 -33.6667,0.32728 -28.2681,-0.42285 -31.1213,-0.68809 -38.3183,-3.56209 -10.4671,-4.17991 -15.3339,-8.77199 -22.6601,-21.38071 -8.0578,-13.86789 -13.1497,-19.51492 -20.5473,-22.78724 -6.783,-3.00041 -12.517,-8.56124 -18.7324,-18.1665 -2.3124,-3.57358 -6.2883,-7.90144 -8.8353,-9.61747 -4.4527,-2.99993 -4.7751,-3.03343 -8.3733,-0.86993 -2.0583,1.23756 -7.4576,7.23049 -11.9986,13.31762 -6.6596,8.92719 -9.6531,11.75091 -15.4793,14.60139 -8.6116,4.21329 -12.1866,7.8709 -18.9658,19.4043 -10.7532,18.29412 -13.7915,21.43847 -24.3609,25.21092 l -6.271,2.23828 -0.3411,8.60874 c -0.1875,4.7348 -0.649,9.95873 -1.0254,11.60873 l -0.6843,3 h -46.6413 -46.6413 v -9.22428 c 0,-5.07336 -0.3808,-10.21667 -0.8462,-11.42957 -0.4654,-1.21291 -3.9154,-3.60443 -7.66666,-5.31451 -9.02854,-4.11584 -13.8887,-9.04455 -22.01762,-22.32809 -9.10866,-14.88458 -10.21404,-16.09699 -19.68812,-21.59451 -4.52025,-2.62296 -10.17145,-7.32052 -12.55822,-10.43902 -6.2623,-8.1822 -17.54424,-19.67002 -19.31751,-19.67002 -1.51899,0 -10.11825,8.96643 -19.61892,20.45659 -2.87952,3.48249 -8.47599,7.93124 -13.03269,10.35993 -6.47094,3.44898 -9.08492,5.92545 -13.77808,13.05333 -3.18563,4.83826 -6.55774,10.29682 -7.49358,12.13015 -3.99247,7.82131 -9.80262,13.42951 -17.93311,17.30984 -4.63686,2.21296 -8.79482,4.97261 -9.23994,6.13257 -0.44512,1.15996 -0.8093,6.25995 -0.8093,11.33331 v 9.22428 h -46.52402 c -53.06985,0 -48.14265,1.37441 -48.14265,-13.42911 v -9.21101 l -8.33333,-3.80981 c -9.32877,-4.26492 -14.68532,-9.06604 -18.53597,-16.61394 -4.05923,-7.95676 -11.19712,-18.68382 -14.26935,-21.44448 -1.53529,-1.37959 -5.45279,-3.77959 -8.70553,-5.33333 -5.53504,-2.64393 -14.13359,-11.45658 -21.10464,-21.63017 -1.61111,-2.35125 -4.60671,-5.26588 -6.6569,-6.47695 -3.46538,-2.04705 -3.98984,-2.04705 -7.45522,0 -2.05019,1.21107 -5.04579,4.1257 -6.6569,6.47695 -6.97105,10.17359 -15.5696,18.98624 -21.10464,21.63017 -3.25274,1.55374 -7.17024,3.95374 -8.70553,5.33333 -3.07223,2.76066 -10.21012,13.48772 -14.26935,21.44448 -3.85065,7.5479 -9.2072,12.34902 -18.53597,16.61394 l -8.33333,3.80981 v 9.21101 c 0,14.80352 4.9272,13.42911 -48.14265,13.42911 h -46.52402 v -9.22428 c 0,-5.07336 -0.36418,-10.17335 -0.8093,-11.33331 -0.44512,-1.15996 -4.60308,-3.91961 -9.23994,-6.13257 -8.13049,-3.88033 -13.94064,-9.48853 -17.93311,-17.30984 -0.93584,-1.83333 -4.30795,-7.29189 -7.49358,-12.13015 -4.69316,-7.12788 -7.30714,-9.60435 -13.77808,-13.05333 -4.5567,-2.42869 -10.15317,-6.87744 -13.03269,-10.35993 -9.50067,-11.49016 -18.09993,-20.45659 -19.61892,-20.45659 -1.77327,0 -13.05521,11.48782 -19.31751,19.67002 -2.38677,3.1185 -8.03797,7.81606 -12.55822,10.43902 -9.47408,5.49752 -10.57946,6.70993 -19.68812,21.59451 -8.12892,13.28354 -12.98908,18.21225 -22.01762,22.32809 -3.75122,1.71008 -7.20122,4.1016 -7.66666,5.31451 -0.46543,1.2129 -0.84624,6.35621 -0.84624,11.42957 v 9.22428 h -46.64127 -46.64126 z"
       id="path4261"
       inkscape:connector-curvature="0" />
    <path
       style="fill:#f3f3f3;stroke-width:1.33333325"
       d="m 242.14265,256.55761 c -0.44514,-1.15998 -0.80932,-6.00002 -0.80932,-10.75563 0,-7.30456 -0.54975,-9.36733 -3.54198,-13.29035 -1.94809,-2.55408 -6.29809,-6.21222 -9.66666,-8.12921 -8.83704,-5.02899 -13.03518,-9.1848 -19.91654,-19.71576 -5.96472,-9.12817 -15.53943,-19.3169 -26.93906,-28.66666 -3.1294,-2.56667 -8.85647,-8.86667 -12.72683,-14 -14.20116,-18.83528 -21.79946,-18.70028 -36.52884,0.64902 -4.45403,5.85107 -10.28061,12.29866 -12.94794,14.32798 -10.90211,8.29437 -18.49493,16.293 -25.88734,27.27089 -13.239501,19.66094 -21.319515,23.75553 -46.85911,23.74604 -8.975467,-0.003 -23.069031,-0.395 -31.31903,-0.87039 L 0,226.25922 v -54.98696 c 0,-62.6402 -1.4183385,-56.6056 13.30426,-56.6056 8.63361,0 9.281089,-0.22201 12.999859,-4.45745 2.152535,-2.4516 6.996454,-8.9016 10.764265,-14.333336 C 44.158427,85.654766 48.427236,81.671719 58.666665,75.723425 66.364852,71.25139 70.237118,67.109342 79.666005,53.261063 85.713126,44.379608 89.164711,40.805672 95.999998,36.348067 100.76666,33.239504 106.31666,28.880039 108.33333,26.660366 111.5894,23.076529 112,21.593997 112,13.421348 112,-1.2672901 108.34896,0 150.66666,0 c 42.31272,0 38.66667,-1.2631686 38.66667,13.395988 0,8.396771 0.35805,9.585695 4.20709,13.969502 2.31391,2.635388 6.36391,5.938172 9,7.33952 7.48869,3.980984 12.60752,9.13925 19.80904,19.961655 6.19769,9.313872 17.97435,21.514122 26.10119,27.040038 1.91974,1.305354 7.16641,7.202308 11.65925,13.10434 4.49284,5.902037 10.05608,11.912707 12.36277,13.357047 8.58051,5.37271 16.22576,1.11669 28.30828,-15.75887 3.40683,-4.758306 9.24906,-10.598158 13.78678,-13.781182 8.22188,-5.767327 15.82865,-13.979722 21.9307,-23.676745 5.65808,-8.991512 12.59277,-15.986414 19.66467,-19.835422 3.5833,-1.950281 8.1625,-5.699194 10.176,-8.330918 C 369.51568,22.633006 370.06219,20.544799 370.47015,11 L 370.9403,0 h 37.72636 37.72636 l 0.47744,11 c 0.55978,12.896914 3.2783,17.731315 13.12953,23.348484 8.57529,4.889635 12.73529,9.011335 20.21481,20.028715 3.62577,5.340793 9.91655,12.840793 13.97949,16.666666 13.8293,13.022364 22.46167,21.794201 29.51955,29.996485 11.90031,13.82989 18.7118,12.79164 32.18356,-4.905591 4.405,-5.786645 9.88148,-11.934231 12.16996,-13.6613 10.49445,-7.919969 19.56107,-17.379843 26.65084,-27.806794 7.6267,-11.216634 12.75933,-16.259535 20.75949,-20.396577 2.26955,-1.173626 6.01551,-4.285394 8.32437,-6.915039 3.83871,-4.372048 4.19792,-5.566524 4.19792,-13.959061 C 627.99998,-1.2631686 624.35393,0 666.66665,0 c 42.31272,0 38.66667,-1.2631686 38.66667,13.395988 0,8.392537 0.35921,9.587013 4.19792,13.959061 2.30886,2.629645 6.05482,5.741413 8.32437,6.915039 8.00016,4.137042 13.13279,9.179943 20.75949,20.396577 7.08977,10.426951 16.15639,19.886825 26.65084,27.806794 2.28848,1.727069 7.76496,7.874655 12.16996,13.6613 13.47176,17.697231 20.28325,18.735481 32.18356,4.905591 7.05788,-8.202284 15.69025,-16.974121 29.51955,-29.996485 4.06294,-3.825873 10.35372,-11.325873 13.97949,-16.666666 7.47952,-11.01738 11.63952,-15.13908 20.21481,-20.028715 C 883.18454,28.731315 885.90306,23.896914 886.46284,11 l 0.47744,-11 h 37.72636 37.72636 l 0.47015,11 c 0.40796,9.544799 0.95447,11.633006 4.13105,15.784953 2.0135,2.631724 6.5927,6.380637 10.176,8.330918 7.0719,3.849008 14.00659,10.84391 19.66467,19.835422 6.10203,9.697023 13.70883,17.909418 21.93073,23.676745 4.5377,3.183024 10.3799,9.022876 13.7867,13.781182 12.0826,16.87556 19.7278,21.13158 28.3083,15.75887 2.3067,-1.44434 7.87,-7.45501 12.3628,-13.357047 4.4928,-5.902032 9.7395,-11.798986 11.6593,-13.10434 8.1268,-5.525916 19.9034,-17.726166 26.1011,-27.040038 7.2016,-10.822405 12.3204,-15.980671 19.8091,-19.961655 2.6361,-1.401348 6.6861,-4.704132 9,-7.33952 C 1143.6419,22.981683 1144,21.792759 1144,13.395988 1144,-1.2631686 1140.3539,0 1182.6666,0 c 42.3177,0 38.6667,-1.2672901 38.6667,13.421348 0,8.172649 0.4106,9.655181 3.6667,13.239018 2.0166,2.219673 7.5666,6.579138 12.3333,9.687701 6.8353,4.457605 10.2869,8.031541 16.334,16.912996 9.4289,13.848279 13.3011,17.990327 20.9993,22.462362 10.2395,5.948294 14.5083,9.931341 21.5983,20.152449 3.7678,5.431736 8.6117,11.881736 10.7643,14.333336 3.7188,4.23544 4.3662,4.45745 12.9998,4.45745 14.7227,0 13.3043,-6.0346 13.3043,56.6056 v 54.98696 l -15,0.86432 c -53.5723,3.08692 -62.4431,0.49123 -78.1781,-22.87565 -7.3924,-10.97789 -14.9853,-18.97652 -25.8874,-27.27089 -2.6673,-2.02932 -8.4939,-8.47691 -12.9479,-14.32798 -14.7294,-19.3493 -22.3277,-19.4843 -36.5289,-0.64902 -3.8703,5.13333 -9.5974,11.43333 -12.7268,14 -11.3996,9.34976 -20.9743,19.53849 -26.9391,28.66666 -6.8813,10.53096 -11.0794,14.68677 -19.9165,19.71576 -3.3686,1.91699 -7.7186,5.57513 -9.6667,8.12921 -2.9922,3.92302 -3.5419,5.98579 -3.5419,13.29035 0,14.04164 3.538,12.86468 -38.6725,12.86468 h -37.0539 l -0.4701,-11.26971 c -0.4628,-11.09288 -0.5539,-11.35614 -5.8035,-16.77964 -2.9334,-3.03046 -7.4743,-6.61565 -10.09097,-7.96708 -5.39479,-2.7862 -12.76769,-10.50464 -18.0872,-18.93486 -4.70744,-7.46024 -17.00689,-20.33319 -24.11264,-25.23697 -3.09327,-2.13471 -8.36552,-7.72303 -11.71613,-12.4185 -15.45098,-21.65258 -24.50542,-23.03829 -37.63535,-5.75977 -6.65701,8.76037 -10.34117,12.53097 -25.09231,25.68103 -4.9241,4.38965 -12.39924,13.08965 -16.61141,19.33333 -5.36045,7.94578 -9.3742,12.35238 -13.37628,14.6855 -3.14478,1.83334 -8.76877,6.14563 -12.49776,9.58287 l -6.77997,6.24953 -0.47016,11.41714 -0.47015,11.41713 h -37.05386 c -42.21054,0 -38.6725,1.17696 -38.6725,-12.86468 0,-10.58053 -3.17765,-15.48576 -14.49101,-22.36923 -8.96891,-5.45702 -12.89477,-9.47416 -19.5774,-20.03249 -5.1924,-8.20384 -15.80074,-19.42754 -25.70785,-27.1991 -3.13092,-2.45603 -8.92341,-8.75603 -12.8722,-14 -14.19835,-18.85535 -21.83805,-18.85535 -36.0364,0 -3.94879,5.24397 -9.74128,11.54397 -12.8722,14 -9.90711,7.77156 -20.51545,18.99526 -25.70785,27.1991 -6.68263,10.55833 -10.60849,14.57547 -19.5774,20.03249 -11.31336,6.88347 -14.49101,11.7887 -14.49101,22.36923 0,14.04164 3.53804,12.86468 -38.6725,12.86468 h -37.05386 l -0.47015,-11.41713 -0.47016,-11.41714 -6.77997,-6.24953 c -3.72899,-3.43724 -9.35298,-7.74953 -12.49776,-9.58287 -4.00208,-2.33312 -8.01583,-6.73972 -13.37628,-14.6855 -4.21217,-6.24368 -11.68731,-14.94368 -16.61141,-19.33333 -14.75114,-13.15006 -18.4353,-16.92066 -25.09231,-25.68103 -13.12993,-17.27852 -22.18437,-15.89281 -37.63535,5.75977 -3.35061,4.69547 -8.62286,10.28379 -11.71613,12.4185 -7.10575,4.90378 -19.4052,17.77673 -24.11264,25.23697 -5.31951,8.43022 -12.69241,16.14866 -18.0872,18.93486 -2.61668,1.35143 -7.15761,4.93662 -10.09094,7.96708 -5.24966,5.4235 -5.34071,5.68676 -5.8035,16.77964 l -0.47014,11.26971 h -37.05387 c -32.55828,0 -37.15205,-0.25588 -37.86317,-2.10905 z"
       id="path4259"
       inkscape:connector-curvature="0" />
    <path
       style="fill:#ededed;stroke-width:1.33333325"
       d="m 251.47598,256.55761 c -0.44513,-1.15998 -0.80932,-6.20498 -0.80932,-11.21111 0,-8.79116 -0.20248,-9.35063 -5.92805,-16.37937 -3.26044,-4.00252 -9.84159,-10.35283 -14.62479,-14.1118 -4.93556,-3.87871 -12.12841,-11.50984 -16.63161,-17.64502 -4.36419,-5.94577 -13.23303,-15.57546 -19.70855,-21.3993 -6.47552,-5.82384 -15.67366,-15.76849 -20.44033,-22.09924 -10.12283,-13.4444 -15.17163,-16.7888 -24.16299,-16.00591 -8.07064,0.70272 -13.13082,4.46354 -21.8265,16.22184 -3.89368,5.26506 -12.68892,14.83186 -19.54497,21.25958 -6.85605,6.42772 -16.365539,16.8901 -21.132205,23.24974 -5.163704,6.88936 -11.28743,13.31445 -15.150685,15.89631 l -6.48402,4.33333 H 34.62503 c -16.723812,0 -31.3560026,-0.36419 -32.5159801,-0.80932 C 0.24345755,217.14145 0,211.84791 0,172 c 0,-51.27592 -1.2758259,-46.66667 12.917177,-46.66667 7.747584,0 9.279449,-0.45966 14.005152,-4.20249 2.918341,-2.31137 9.177437,-9.47697 13.909102,-15.92356 C 45.826803,98.401411 52.348685,91.375514 56.383895,88.452915 69.954138,78.624334 76.278946,72.530757 84.167814,61.684753 88.650628,55.521557 95.57976,48.06796 99.959387,44.697915 104.25151,41.395206 110.81651,35.267295 114.54829,31.080337 l 6.78504,-7.612651 v -9.624793 c 0,-5.2936362 0.36419,-10.5738656 0.80932,-11.7338431 C 122.84491,0.27899327 126.63704,0 150.80932,0 h 27.85734 v 10.466615 c 0,9.40433 0.38594,10.994383 3.80255,15.666667 2.09139,2.860028 7.34139,8.379588 11.66667,12.26569 15.27671,13.725596 16.68451,15.18596 23.15295,24.017442 3.59206,4.904304 12.05242,13.982065 18.80079,20.172803 6.74839,6.190737 15.41799,15.490736 19.26579,20.666663 8.24504,11.09094 11.96738,14.72397 17.06472,16.6553 10.50914,3.98181 20.19965,-0.71257 29.4659,-14.27419 3.42707,-5.0157 12.50366,-14.976924 20.17019,-22.136055 7.66653,-7.15913 16.59968,-16.725577 19.85144,-21.258769 C 345.15942,57.708975 353.9391,48.33518 361.41807,41.411514 378.27724,25.804101 379.98852,23.135501 379.995,12.442383 380.00311,-0.93036476 377.85922,0 408.66666,0 c 23.43428,0 27.15616,0.28177959 27.85734,2.1090499 0.44514,1.1599775 0.80932,6.4093619 0.80932,11.6652991 v 9.556248 l 16.40398,16.001367 c 9.0222,8.800752 18.66901,19.14554 21.43738,22.988416 2.76837,3.842876 11.20435,12.842875 18.74661,19.999999 7.54227,7.157124 16.84728,17.36804 20.67782,22.690921 8.72949,12.13045 16.17524,16.95727 24.67928,15.99874 7.79581,-0.8787 12.58661,-4.57194 22.04052,-16.99111 4.37,-5.740661 13.09056,-15.143371 19.37904,-20.894915 6.28849,-5.751542 14.31356,-14.35735 17.83348,-19.124017 3.51993,-4.766666 8.96382,-11.066666 12.09754,-13.999999 3.13371,-2.933334 10.42416,-9.988031 16.201,-15.677105 l 10.50335,-10.343772 v -9.88051 c 0,-5.4342821 0.36418,-10.8295846 0.80932,-11.9895621 C 638.8447,0.27947258 642.62446,0 666.66665,0 c 24.04219,0 27.82195,0.27947258 28.52401,2.1090499 0.44514,1.1599775 0.80932,6.55528 0.80932,11.9895621 v 9.88051 l 10.50335,10.343772 c 5.77684,5.689074 13.06729,12.743771 16.201,15.677105 3.13372,2.933333 8.57761,9.233333 12.09754,13.999999 3.51992,4.766667 11.54499,13.372475 17.83348,19.124017 6.28848,5.751544 15.00904,15.154254 19.37904,20.894915 9.45391,12.41917 14.24471,16.11241 22.04052,16.99111 8.50404,0.95853 15.94979,-3.86829 24.67928,-15.99874 3.83054,-5.322881 13.13555,-15.533797 20.67782,-22.690921 7.54226,-7.157124 15.97824,-16.157123 18.74661,-19.999999 2.76837,-3.842876 12.41518,-14.187664 21.43738,-22.988416 l 16.40398,-16.001367 v -9.556248 c 0,-5.2559372 0.36418,-10.5053216 0.80932,-11.6652991 C 897.51048,0.28177959 901.23236,0 924.66664,0 c 30.80744,0 28.66355,-0.93036476 28.67166,12.442383 0.007,10.693118 1.71776,13.361718 18.57693,28.969131 7.47897,6.923666 16.25865,16.297461 19.51041,20.830652 3.25176,4.533192 12.18486,14.099639 19.85146,21.258769 7.6665,7.159131 16.7431,17.120355 20.1702,22.136055 9.2662,13.56162 18.9567,18.256 29.4659,14.27419 5.0973,-1.93133 8.8197,-5.56436 17.0647,-16.6553 3.8478,-5.175927 12.5174,-14.475926 19.2658,-20.666663 6.7484,-6.190738 15.2087,-15.268499 18.8008,-20.172803 6.4684,-8.831482 7.8762,-10.291846 23.1529,-24.017442 4.3253,-3.886102 9.5753,-9.405662 11.6667,-12.26569 3.4166,-4.672284 3.8025,-6.262337 3.8025,-15.666667 V 0 h 27.8574 c 24.1722,0 27.9644,0.27899327 28.6666,2.1090499 0.4452,1.1599775 0.8094,6.4402069 0.8094,11.7338431 v 9.624793 l 6.785,7.612651 c 3.7318,4.186958 10.2968,10.314869 14.5889,13.617578 4.3796,3.370045 11.3088,10.823642 15.7916,16.986838 7.8889,10.846004 14.2137,16.939581 27.7839,26.768162 4.0352,2.922599 10.5571,9.948496 15.5525,16.754365 4.7316,6.44659 10.9907,13.61219 13.9091,15.92356 4.7257,3.74283 6.2575,4.20249 14.0051,4.20249 14.1931,0 12.9172,-4.60925 12.9172,46.66667 0,39.84791 -0.2435,45.14145 -2.1091,45.85734 -1.1599,0.44513 -15.7921,0.80932 -32.5159,0.80932 h -30.407 l -6.484,-4.33333 c -3.8632,-2.58186 -9.987,-9.00695 -15.1507,-15.89631 -4.7666,-6.35964 -14.2761,-16.82202 -21.1322,-23.24974 -6.856,-6.42772 -15.6513,-15.99452 -19.5449,-21.25958 -8.6957,-11.7583 -13.7559,-15.51912 -21.8265,-16.22184 -8.9914,-0.78289 -14.0402,2.56151 -24.163,16.00591 -4.7667,6.33075 -13.9648,16.2754 -20.4404,22.09924 -6.4755,5.82384 -15.3443,15.45353 -19.7085,21.3993 -4.5032,6.13518 -11.6961,13.76631 -16.6316,17.64502 -4.7832,3.75897 -11.3644,10.10928 -14.6248,14.1118 -5.7256,7.02874 -5.9281,7.58821 -5.9281,16.37937 0,14.38611 2.2941,13.32016 -28.6666,13.32016 -30.8075,0 -28.6636,0.93036 -28.6717,-12.44239 -0.01,-10.69512 -1.7036,-13.33797 -18.5927,-28.95233 -7.49884,-6.93291 -16.28357,-16.31489 -19.52161,-20.84887 -3.23803,-4.53397 -11.93448,-13.83397 -19.32544,-20.66666 -7.39096,-6.83269 -16.48604,-16.80439 -20.21129,-22.15932 -7.64188,-10.98495 -15.06188,-16.26376 -22.86064,-16.26376 -8.54896,0 -14.65079,4.6928 -25.13823,19.33333 -2.62653,3.66667 -10.31456,11.7386 -17.08449,17.93764 -6.76994,6.19903 -15.44206,15.49903 -19.27139,20.66667 -3.82933,5.16762 -12.54225,14.4873 -19.36206,20.71037 -18.27078,16.67208 -19.96047,19.39947 -19.96047,32.21871 v 10.46661 h -27.85735 c -31.88674,0 -29.47598,1.09376 -29.47598,-13.37316 0,-8.98667 -0.1184,-9.29736 -6.44055,-16.89095 -3.54229,-4.25474 -9.91155,-10.41228 -14.15388,-13.68342 -4.24235,-3.27115 -11.35863,-10.73618 -15.81396,-16.58895 -4.45533,-5.85277 -14.7361,-17.27637 -22.84617,-25.38578 -8.11005,-8.10943 -17.53428,-18.39698 -20.94271,-22.86122 -7.37233,-9.65604 -13.61661,-13.14306 -21.8697,-12.21282 -7.59135,0.85565 -12.27666,4.44261 -21.07795,16.1368 -4.04761,5.37802 -12.97629,15.12152 -19.84151,21.6522 -6.86521,6.53068 -16.1325,16.69758 -20.594,22.5931 -4.46149,5.89552 -11.58279,13.39552 -15.82514,16.66667 -4.24233,3.27114 -10.61159,9.42868 -14.15388,13.68342 -6.32208,7.59359 -6.44055,7.90428 -6.44055,16.89095 0,14.46692 2.41076,13.37316 -29.47598,13.37316 h -27.85735 v -10.46661 c 0,-12.81924 -1.68969,-15.54663 -19.96047,-32.21871 -6.81981,-6.22307 -15.53273,-15.54275 -19.36206,-20.71037 -3.82933,-5.16764 -12.50145,-14.46764 -19.27139,-20.66667 -6.76993,-6.19904 -14.45796,-14.27097 -17.08449,-17.93764 -10.48744,-14.64053 -16.58927,-19.33333 -25.13823,-19.33333 -7.79876,0 -15.21876,5.27881 -22.86064,16.26376 -3.72525,5.35493 -12.82033,15.32663 -20.21129,22.15932 -7.39096,6.83269 -16.08741,16.13269 -19.32544,20.66666 -3.23804,4.53398 -12.02277,13.91596 -19.52164,20.84887 -16.88902,15.61436 -18.58621,18.25721 -18.59269,28.95233 -0.008,13.37275 2.13579,12.44239 -28.67165,12.44239 -23.43428,0 -27.15616,-0.28177 -27.85735,-2.10905 z"
       id="path4257"
       inkscape:connector-curvature="0" />
    <path
       style="fill:#e9e9e9;stroke-width:1.33333325"
       d="m 260.33333,256.67222 c -0.98748,-1.12159 -1.66667,-5.62127 -1.66667,-11.04181 0,-8.51272 -0.35219,-9.62084 -5.06553,-15.93815 -2.78604,-3.73413 -10.55482,-11.79361 -17.26396,-17.90995 -6.70914,-6.11633 -15.75668,-15.97828 -20.10566,-21.91542 -4.363,-5.95631 -11.44109,-13.51408 -15.79136,-16.86153 -9.46683,-7.28456 -15.93205,-14.2659 -22.09902,-23.86318 -6.30528,-9.81252 -15.62989,-18.09618 -21.63923,-19.22354 -13.19581,-2.47555 -22.72044,2.6228 -32.79698,17.5556 -7.18503,10.64774 -14.25549,18.24202 -26.899656,28.89252 -4.157206,3.50172 -10.664493,10.85965 -14.460634,16.35097 -3.796143,5.4913 -9.752038,12.07626 -13.235324,14.63324 -6.317054,4.63714 -6.370286,4.64901 -20.821277,4.64361 -22.485634,-0.008 -48.84877714,-1.61077 -46.8944588,-2.85031 1.3322481,-0.84497 1.3493699,-1.10822 0.073096,-1.12386 -2.61858555,-0.0321 -2.38918998,-70.15503 0.2380952,-72.78232 1.2710257,-1.27103 4.8714203,-1.90476 10.8213646,-1.90476 8.090244,0 9.505644,-0.4324 15.272529,-4.66568 7.17774,-5.26895 13.176007,-11.83844 20.001344,-21.90611 2.82526,-4.16739 9.401712,-10.492077 16.666666,-16.028636 C 78.660061,80.068662 81.865879,76.861815 89.60715,65.784432 92.75655,61.277793 101.18933,52.325855 108.34665,45.891236 125.61693,30.364825 129.33333,24.538958 129.33333,12.99232 129.33333,-0.72123219 128.21517,0 149.47598,0 c 13.91943,0 18.5291,0.41428931 18.54443,1.6666666 0.0136,1.1111111 0.45125,1 1.31292,-0.3333333 0.89481,-1.38462754 1.29879,1.2460701 1.31292,8.5499367 0.0181,9.39563 0.45112,11.219191 3.95696,16.666667 2.16509,3.364201 10.05005,11.787415 17.52213,18.718254 7.47208,6.930838 16.73615,16.830838 20.58683,21.999999 3.85066,5.169161 12.74382,14.670375 19.76256,21.113809 7.14768,6.561815 15.86198,16.216591 19.80996,21.947901 8.82926,12.81751 15.73921,17.89821 25.43588,18.70233 11.8149,0.97979 19.7013,-4.48666 31.30485,-21.6989 5.21412,-7.734426 12.51815,-15.34058 23.64124,-24.619128 2.93333,-2.446899 8.45918,-8.620191 12.27968,-13.718425 3.82048,-5.098236 13.37574,-15.357928 21.23392,-22.799316 7.85816,-7.441387 15.9823,-16.197263 18.05365,-19.457503 3.3234,-5.230944 3.76848,-7.19 3.78649,-16.666666 0.0141,-7.4259259 0.41916,-10.12194676 1.31292,-8.7389587 0.86167,1.3333333 1.29931,1.4444444 1.31292,0.3333333 0.0315,-2.56708124 34.19831,-2.3459161 36.78232,0.2380952 1.28703,1.2870273 1.90476,4.9237184 1.90476,11.2136032 0,8.77721 0.2915,9.677609 5.10408,15.765986 2.80724,3.551429 10.8183,11.855308 17.80235,18.453062 6.98405,6.597756 15.73,16.195919 19.43545,21.329252 3.70545,5.133333 8.52093,10.64698 10.70107,12.252549 8.70638,6.411858 20.37568,18.274691 25.05968,25.475296 11.09688,17.05898 20.37624,23.61632 32.04981,22.64825 9.76345,-0.80966 16.27273,-5.54762 25.27831,-18.39955 4.13817,-5.90561 13.17121,-15.906012 20.17453,-22.335079 6.97473,-6.402806 15.83276,-15.871974 19.68452,-21.042595 3.85174,-5.170622 12.80726,-14.770621 19.90116,-21.333333 17.34065,-16.042232 20.80904,-21.532544 20.80904,-32.939883 0,-10.0366278 1.0448,-14.2565075 2.8318,-11.4374478 0.84412,1.3316239 1.13249,1.3597121 1.14778,0.1117947 C 649.32817,0.41985043 653.69976,0 666.66665,0 c 12.96689,0 17.33848,0.41985043 17.35375,1.6666666 0.0153,1.2479177 0.30366,1.2198295 1.14778,-0.1117946 1.787,-2.8190595 2.8318,1.4008202 2.8318,11.437448 0,11.407339 3.46839,16.897651 20.80904,32.939883 7.0939,6.562712 16.04942,16.162711 19.90116,21.333333 3.85176,5.170621 12.70979,14.639789 19.68452,21.042595 7.00332,6.429067 16.03636,16.429469 20.17453,22.335079 9.00558,12.85193 15.51486,17.58989 25.27831,18.39955 11.67357,0.96807 20.95293,-5.58927 32.04981,-22.64825 4.684,-7.200605 16.3533,-19.063438 25.05968,-25.475296 2.18014,-1.605569 6.99562,-7.119216 10.70107,-12.252549 3.70545,-5.133333 12.4514,-14.731496 19.43545,-21.329252 6.98405,-6.597754 14.99511,-14.901633 17.80235,-18.453062 4.81258,-6.088377 5.10408,-6.988776 5.10408,-15.765986 0,-6.2898848 0.61773,-9.9265759 1.90476,-11.2136032 2.58401,-2.5840113 36.75088,-2.80517644 36.78232,-0.2380952 0.0136,1.1111111 0.45125,1 1.31292,-0.3333333 0.89376,-1.38298806 1.2988,1.3130328 1.31292,8.7389587 0.018,9.476666 0.46309,11.435722 3.78649,16.666666 2.07135,3.26024 10.19549,12.016116 18.05365,19.457503 7.85818,7.441388 17.41344,17.70108 21.23392,22.799316 3.8205,5.098234 9.34635,11.271526 12.27964,13.718425 11.1231,9.278548 18.4272,16.884702 23.6413,24.619128 11.6035,17.21224 19.4899,22.67869 31.3048,21.6989 9.6967,-0.80412 16.6066,-5.88482 25.4359,-18.70233 3.948,-5.73131 12.6623,-15.386086 19.81,-21.947901 7.0187,-6.443434 15.9119,-15.944648 19.7625,-21.113809 3.8507,-5.169161 13.1148,-15.069161 20.5869,-21.999999 7.472,-6.930839 15.357,-15.354053 17.5221,-18.718254 3.5058,-5.447476 3.9388,-7.271037 3.957,-16.666667 0.014,-7.3038666 0.4181,-9.93456424 1.3129,-8.5499367 0.8616,1.3333333 1.2993,1.4444444 1.3129,0.3333333 C 1165.3282,0.41428931 1169.9379,0 1183.8573,0 1205.1181,0 1204,-0.72123219 1204,12.99232 c 0,11.546638 3.7164,17.372505 20.9866,32.898916 7.1574,6.434619 15.5902,15.386557 18.7396,19.893196 7.7412,11.077383 10.947,14.28423 24.9404,24.948472 7.265,5.536559 13.8414,11.861246 16.6667,16.028636 6.8253,10.06767 12.8236,16.63716 20.0013,21.90611 5.7669,4.23328 7.1823,4.66568 15.2726,4.66568 5.9499,0 9.5503,0.63373 10.8213,1.90476 2.6273,2.62729 2.8567,72.75024 0.2381,72.78232 -1.2762,0.0156 -1.2591,0.27889 0.073,1.12386 1.9544,1.23954 -24.4088,2.84192 -46.8945,2.85031 -14.451,0.005 -14.5042,-0.007 -20.8212,-4.64361 -3.4833,-2.55698 -9.4392,-9.14194 -13.2354,-14.63324 -3.7961,-5.49132 -10.3034,-12.84925 -14.4606,-16.35097 -12.6442,-10.6505 -19.7146,-18.24478 -26.8996,-28.89252 -10.0766,-14.9328 -19.6012,-20.03115 -32.797,-17.5556 -6.0094,1.12736 -15.334,9.41102 -21.6393,19.22354 -6.1669,9.59728 -12.6321,16.57862 -22.099,23.86318 -4.3502,3.34745 -11.4283,10.90522 -15.7913,16.86153 -4.349,5.93714 -13.3966,15.79909 -20.1057,21.91542 -6.7091,6.11634 -14.4779,14.17582 -17.264,17.90995 -4.7182,6.32385 -5.0655,7.41928 -5.0655,15.97711 0,6.18496 -0.6225,9.81029 -1.9047,11.09253 -2.5841,2.58401 -36.7509,2.80517 -36.7824,0.23809 -0.014,-1.1111 -0.4512,-1 -1.3129,0.33334 -0.8937,1.38298 -1.2988,-1.31303 -1.3129,-8.73896 -0.018,-9.4796 -0.463,-11.43688 -3.7947,-16.69035 -2.0758,-3.27325 -9.9261,-11.64072 -17.4452,-18.59437 -7.519,-6.95364 -17.31442,-17.59299 -21.76764,-23.64299 -4.45321,-6.05 -8.49042,-11 -8.97157,-11 -2.33175,0 -22.16016,-19.98582 -26.96108,-27.17512 -10.69848,-16.02076 -19.16413,-22.38043 -29.79161,-22.38043 -9.97798,0 -17.50816,5.42865 -27.69428,19.96531 -4.0397,5.76508 -13.14387,15.81516 -20.23148,22.33354 -7.08763,6.51836 -15.46873,15.46772 -18.62468,19.88746 -3.15593,4.41975 -11.86608,13.68824 -19.35585,20.59665 -7.48978,6.90842 -15.6648,15.60042 -18.16672,19.31555 -4.22904,6.27976 -4.55038,7.50613 -4.56935,17.43924 -0.0141,7.39073 -0.41887,10.06792 -1.31292,8.68447 -0.86167,-1.33334 -1.29931,-1.44444 -1.31292,-0.33334 -0.0153,1.25238 -4.625,1.66667 -18.54443,1.66667 -21.28916,0 -20.14262,0.75144 -20.14262,-13.20157 0,-8.30271 -0.37891,-9.49044 -5,-15.67335 -2.75,-3.67943 -10.37726,-11.66812 -16.94944,-17.75264 -6.5722,-6.08453 -15.44263,-15.75504 -19.71205,-21.49004 -4.26944,-5.735 -12.04251,-13.90468 -17.27347,-18.15484 -5.23097,-4.25016 -12.40691,-11.62756 -15.94651,-16.39422 -16.05493,-21.6206 -22.32186,-26.66667 -33.11853,-26.66667 -10.79667,0 -17.0636,5.04607 -33.11853,26.66667 -3.5396,4.76666 -10.71554,12.14406 -15.94651,16.39422 -5.23096,4.25016 -13.00403,12.41984 -17.27347,18.15484 -4.26942,5.735 -13.13985,15.40551 -19.71205,21.49004 -6.57218,6.08452 -14.19944,14.07321 -16.94944,17.75264 -4.62109,6.18291 -5,7.37064 -5,15.67335 0,13.95301 1.14654,13.20157 -20.14265,13.20157 -13.91943,0 -18.52909,-0.41429 -18.54443,-1.66667 -0.0136,-1.1111 -0.45125,-1 -1.31292,0.33334 -0.89405,1.38345 -1.29878,-1.29374 -1.31292,-8.68447 -0.0189,-9.93311 -0.3403,-11.15948 -4.56934,-17.43924 -2.50192,-3.71513 -10.67695,-12.40713 -18.16672,-19.31555 -7.48978,-6.90841 -16.19992,-16.1769 -19.35586,-20.59665 -3.15594,-4.41974 -11.53705,-13.3691 -18.62467,-19.88746 -7.08762,-6.51838 -16.19179,-16.56846 -20.23148,-22.33354 -10.18612,-14.53666 -17.71631,-19.96531 -27.69428,-19.96531 -10.62748,0 -19.09314,6.35967 -29.79162,22.38043 -4.80092,7.1893 -24.62933,27.17512 -26.96108,27.17512 -0.48114,0 -4.51836,4.95 -8.97157,11 -4.45321,6.05 -14.24866,16.68935 -21.76768,23.64299 -7.51901,6.95365 -15.36934,15.32112 -17.44518,18.59437 -3.33166,5.25347 -3.77666,7.21075 -3.79467,16.69035 -0.0141,7.42593 -0.41916,10.12194 -1.31292,8.73896 -0.86167,-1.33334 -1.29931,-1.44444 -1.31292,-0.33334 -0.0313,2.55992 -34.74861,2.25255 -37.02041,-0.32777 z"
       id="path4255"
       inkscape:connector-curvature="0" />
    <path
       style="fill:#e5e5e5;stroke-width:1.33333325"
       d="m 267.47598,256.55761 c -0.44513,-1.15998 -0.80932,-5.95699 -0.80932,-10.66002 0,-8.39916 -0.14108,-8.73456 -7.94601,-18.89096 -4.37031,-5.68698 -12.74898,-14.3788 -18.61926,-19.31513 -6.57712,-5.53072 -13.55081,-13.08176 -18.1713,-19.67569 -4.12394,-5.88529 -10.22022,-12.94647 -13.54728,-15.69151 -14.27044,-11.77397 -22.31145,-20.21169 -27.13945,-28.47837 -8.57656,-14.68509 -18.15584,-21.20531 -31.07286,-21.14998 -12.81562,0.0549 -20.39486,5.60993 -32.00256,23.45563 -6.23944,9.59252 -14.89561,18.33534 -24.377209,24.6212 -3.012433,1.99712 -8.661413,8.51068 -13.470674,15.53239 -4.555431,6.65111 -10.137065,13.65336 -12.403631,15.56054 -3.964936,3.33627 -4.761062,3.46739 -21.018727,3.46155 -9.293735,-0.003 -23.6477,-0.395 -31.897699,-0.87039 L 0,203.59255 V 172.6056 c 0,-35.37655 -1.1288476,-32.56266 13.10905,-32.67702 8.334401,-0.0669 9.471801,-0.46338 18.170151,-6.33333 6.798041,-4.58755 10.819631,-8.57929 15.040201,-14.92859 7.60169,-11.43574 19.244371,-23.123006 27.902516,-28.009361 4.522281,-2.552217 8.987925,-6.660624 12.646356,-11.634688 3.11051,-4.229104 7.677361,-10.429707 10.148557,-13.779119 2.471196,-3.349414 9.355039,-10.249413 15.297439,-15.333333 5.94239,-5.083921 14.00266,-13.561557 17.91171,-18.839192 6.86688,-9.271044 7.10735,-9.88763 7.10735,-18.224282 C 137.33333,-0.21215569 137.11314,0 150.66666,0 164.22956,0 164,-0.22262654 164,12.930414 c 0,7.889637 0.46014,9.358693 4.87298,15.557616 2.68014,3.764916 12.13532,14.045302 21.01154,22.845302 8.8762,8.8 19.13335,20.194865 22.79367,25.321922 3.66032,5.127057 8.67207,10.527057 11.1372,12 8.67274,5.182046 16.24342,13.122456 24.97059,26.190086 6.66232,9.9758 10.29459,14.0662 14.87385,16.74982 11.2655,6.60202 26.29468,5.31961 36.2975,-3.0972 2.11861,-1.78269 6.39509,-7.27402 9.5033,-12.20294 8.04934,-12.76446 14.22302,-19.797532 21.8727,-24.9174 7.87217,-5.268782 11.89649,-9.448123 18.65886,-19.377622 6.20521,-9.111409 13.87313,-17.286961 23.12163,-24.652353 3.91261,-3.115951 10.64872,-10.393881 14.96913,-16.173174 7.58227,-10.142596 7.85636,-10.793648 7.88616,-18.732088 C 396.01619,-0.09841393 395.91576,0 408.66666,0 c 12.79376,0 12.66666,-0.12812041 12.66666,12.769072 0,8.408634 0.1345,8.726958 8.08004,19.123377 4.44402,5.814822 9.69402,11.628113 11.66667,12.918423 6.70056,4.382843 17.88827,15.82637 23.97425,24.52246 8.09564,11.567629 12.96299,16.688934 20.94571,22.03856 7.76316,5.202494 14.7368,13.192428 21.3237,24.431268 C 515.35156,129.50062 525.39407,136 538.53084,136 c 11.55899,0 20.30195,-6.24678 30.25943,-21.62014 7.75841,-11.97821 14.35989,-19.087625 22.64545,-24.387836 4.3788,-2.801081 9.22712,-7.714306 13.34989,-13.528595 3.56067,-5.021554 13.44927,-16.030097 21.97465,-24.46343 8.5254,-8.433333 17.992,-18.687855 21.0369,-22.787825 5.17594,-6.969467 5.53616,-8.025095 5.53616,-16.224283 C 653.33332,-0.22981827 653.09738,0 666.66665,0 c 13.56927,0 13.33333,-0.22981827 13.33333,12.987891 0,8.199188 0.36022,9.254816 5.53616,16.224283 3.0449,4.09997 12.5115,14.354492 21.0369,22.787825 8.52538,8.433333 18.41398,19.441876 21.97465,24.46343 4.12277,5.814289 8.97109,10.727514 13.34989,13.528595 8.28556,5.300211 14.88704,12.409626 22.64545,24.387836 C 774.50051,129.75322 783.24347,136 794.80246,136 c 13.13677,0 23.17928,-6.49938 31.20715,-20.19684 6.5869,-11.23884 13.56054,-19.228774 21.3237,-24.431268 7.98272,-5.349626 12.85007,-10.470931 20.94571,-22.03856 6.08598,-8.69609 17.27369,-20.139617 23.97425,-24.52246 1.97265,-1.29031 7.22265,-7.103601 11.66667,-12.918423 7.94554,-10.396419 8.08004,-10.714743 8.08004,-19.123377 C 911.99998,-0.12812041 911.87288,0 924.66664,0 c 12.7509,0 12.65047,-0.09841393 12.69755,12.442383 0.0299,7.93844 0.30389,8.589492 7.88616,18.732088 4.32041,5.779293 11.05652,13.057223 14.96913,16.173174 9.2485,7.365392 16.91642,15.540944 23.12163,24.652353 6.76237,9.929499 10.78669,14.10884 18.65889,19.377622 7.6497,5.119868 13.8233,12.15294 21.8727,24.9174 3.1082,4.92892 7.3847,10.42025 9.5033,12.20294 10.0028,8.41681 25.032,9.69922 36.2975,3.0972 4.5792,-2.68362 8.2115,-6.77402 14.8738,-16.74982 8.7272,-13.06763 16.2979,-21.00804 24.9706,-26.190086 2.4651,-1.472943 7.4769,-6.872943 11.1372,-12 3.6603,-5.127057 13.9175,-16.521922 22.7937,-25.321922 8.8762,-8.8 18.3314,-19.080386 21.0115,-22.845302 4.4129,-6.198923 4.873,-7.667979 4.873,-15.557616 C 1169.3333,-0.22262654 1169.1037,0 1182.6666,0 1196.2202,0 1196,-0.21215569 1196,12.846685 c 0,8.336652 0.2404,8.953238 7.1073,18.224282 3.9091,5.277635 11.9693,13.755271 17.9117,18.839192 5.9424,5.08392 12.8263,11.983919 15.2975,15.333333 2.4712,3.349412 7.038,9.550015 10.1485,13.779119 3.6585,4.974064 8.1241,9.082471 12.6464,11.634688 8.6581,4.886355 20.3008,16.573621 27.9025,28.009361 4.2206,6.3493 8.2422,10.34104 15.0402,14.92859 8.6983,5.86995 9.8357,6.2664 18.1701,6.33333 14.2379,0.1144 13.1091,-2.69953 13.1091,32.67702 v 30.98695 l -15,0.86432 c -8.25,0.47539 -22.604,0.86706 -31.8977,0.87039 -16.2577,0.005 -17.0538,-0.12533 -21.0187,-3.46155 -2.2666,-1.90718 -7.8482,-8.90943 -12.4037,-15.56054 -4.8092,-7.02171 -10.4582,-13.53527 -13.4706,-15.53239 -9.4816,-6.28586 -18.1378,-15.02868 -24.3772,-24.6212 -11.6078,-17.8457 -19.187,-23.40075 -32.0026,-23.45563 -12.917,-0.0553 -22.4963,6.46489 -31.0729,21.14998 -4.828,8.26668 -12.869,16.7044 -27.1394,28.47837 -3.3271,2.74504 -9.4234,9.80622 -13.5473,15.69151 -4.6205,6.59393 -11.5942,14.14497 -18.1713,19.67569 -5.8703,4.93633 -14.2489,13.62815 -18.6192,19.31513 -7.805,10.1564 -7.9461,10.4918 -7.9461,18.89096 0,12.89719 0.1271,12.76907 -12.6666,12.76907 -12.7509,0 -12.6505,0.0984 -12.6976,-12.44239 -0.03,-7.94594 -0.2989,-8.58281 -7.9499,-18.81796 -4.3556,-5.82653 -9.8917,-12.0729 -12.3025,-13.88085 -8.4694,-6.35135 -20.0692,-18.26455 -24.66801,-25.33432 -6.56001,-10.08484 -13.38924,-17.30392 -19.14935,-20.2425 -5.62349,-2.8689 -14.48694,-12.85358 -21.85114,-24.61531 -6.94844,-11.09769 -9.71279,-13.88037 -17.38152,-17.49677 -9.05376,-4.26955 -18.09012,-4.19293 -26.963,0.22861 -6.94236,3.45953 -10.52967,7.33753 -19.29075,20.85404 -5.72231,8.82831 -15.87325,19.26069 -22.46924,23.0922 -2.53569,1.47295 -7.605,6.87295 -11.26512,12 -3.66013,5.12705 -13.66885,16.22192 -22.2416,24.65525 -8.57274,8.43333 -18.32809,19.08501 -21.67856,23.67041 -5.60729,7.67408 -6.09173,8.9643 -6.09173,16.22428 0,12.1527 0.0496,12.10531 -12.66667,12.10531 -12.80544,0 -12.66666,0.14105 -12.66666,-12.87511 0,-8.41694 -0.20211,-8.92556 -7.28854,-18.3412 -4.00868,-5.32629 -11.79378,-13.4108 -17.30021,-17.96557 -5.50644,-4.55476 -12.8766,-12.29617 -16.37815,-17.20314 -6.56958,-9.20643 -15.88266,-18.91556 -28.75678,-29.97967 -4.07325,-3.50059 -10.68119,-11.33788 -14.68429,-17.41619 -10.90666,-16.56064 -18.9521,-22.21912 -31.59203,-22.21912 -12.63993,0 -20.68537,5.65848 -31.59203,22.21912 -4.0031,6.07831 -10.61104,13.9156 -14.68429,17.41619 -12.87412,11.06411 -22.1872,20.77324 -28.75678,29.97967 -3.50155,4.90697 -10.87171,12.64838 -16.37815,17.20314 -5.50643,4.55477 -13.29153,12.63928 -17.30021,17.96557 -7.08643,9.41564 -7.28854,9.92426 -7.28854,18.3412 0,13.01616 0.13878,12.87511 -12.66666,12.87511 -12.71626,0 -12.66667,0.0473 -12.66667,-12.10531 0,-7.25998 -0.48444,-8.5502 -6.09173,-16.22428 -3.35047,-4.5854 -13.10582,-15.23708 -21.67856,-23.67041 -8.57275,-8.43333 -18.58147,-19.5282 -22.2416,-24.65525 -3.66012,-5.12705 -8.72943,-10.52705 -11.26512,-12 -6.59599,-3.83151 -16.74693,-14.26389 -22.46924,-23.0922 -8.76108,-13.51651 -12.34839,-17.39451 -19.29075,-20.85404 -8.87288,-4.42154 -17.90924,-4.49816 -26.963,-0.22861 -7.66873,3.6164 -10.43308,6.39908 -17.38152,17.49677 -7.3642,11.76173 -16.22765,21.74641 -21.85114,24.61531 -5.76011,2.93858 -12.58934,10.15766 -19.14935,20.2425 -4.59877,7.06977 -16.19865,18.98297 -24.66801,25.33432 -2.41084,1.80795 -7.94695,8.05432 -12.30245,13.88085 -7.6511,10.23515 -7.92015,10.87202 -7.94998,18.81796 -0.0471,12.5408 0.0533,12.44239 -12.69754,12.44239 -8.84438,0 -11.20946,-0.42068 -11.85735,-2.10905 z"
       id="path4253"
       inkscape:connector-curvature="0" />
    <path
       style="fill:#e1e1e1;stroke-width:1.33333325"
       d="m 274.9351,233.30165 c -2.16252,-1.31511 -6.25759,-5.29334 -9.10015,-8.84051 -5.62309,-7.01693 -16.3582,-17.68411 -27.30058,-27.12781 -3.8237,-3.3 -10.08668,-10.8 -13.91775,-16.66667 -7.85036,-12.02156 -12.22857,-16.49922 -19.94996,-20.40313 -7.0749,-3.57705 -12.41418,-9.491 -19.48965,-21.58725 -7.83665,-13.39761 -13.99955,-19.35866 -22.67888,-21.93614 -8.86984,-2.63407 -14.83385,-2.61835 -23.9228,0.063 -9.00541,2.65674 -16.03348,9.60179 -23.63463,23.35545 -6.02667,10.90478 -11.77783,17.03662 -19.191274,20.46161 -6.156592,2.84432 -14.057621,11.59959 -22.902826,25.37904 -3.765631,5.86627 -8.346602,11.43631 -10.179935,12.37785 -4.351021,2.23458 -46.866987,0.96338 -59.6666651,-1.784 C 0.02871236,195.95535 0,195.72747 0,172.78392 0,146.3363 -0.84553963,148 12.595905,148 c 6.04202,0 9.264356,-0.67563 11.557616,-2.42327 1.748897,-1.3328 5.247236,-3.25423 7.774089,-4.26985 6.85263,-2.75428 12.892064,-8.65043 20.374987,-19.89161 C 60.81707,108.62446 68.74511,100.34107 73.464921,99.304429 79.036631,98.080676 88.64746,88.870868 95.485982,78.202219 102.92931,66.590025 109.401,59.591336 117.32651,54.583211 c 3.29624,-2.082899 10.19624,-9.036439 15.33333,-15.452312 5.13709,-6.415875 11.29016,-12.800233 13.67349,-14.187465 4.23775,-2.4666 4.4276,-2.467187 8.60653,-0.02656 2.35026,1.372624 8.23404,7.577854 13.07508,13.789402 4.84104,6.211547 10.84935,12.493721 13.35178,13.960388 7.14093,4.185281 18.98366,16.60607 23.69723,24.853954 5.6176,9.82973 13.70519,18.046537 20.72406,21.055177 6.87137,2.945415 12.49869,9.153585 18.40926,20.309465 6.5294,12.32387 14.83279,20.37268 23.71139,22.98442 9.13104,2.68599 13.30512,2.67594 23.03989,-0.0555 6.37491,-1.78871 8.93876,-3.44256 14.11252,-9.10347 3.4773,-3.80472 8.2536,-10.54104 10.61399,-14.9696 4.57507,-8.58371 13.80944,-19.074476 16.79007,-19.074476 4.00919,0 13.20223,-8.566154 19.66171,-18.320966 9.52351,-14.381986 16.44574,-22.345494 21.53478,-24.774171 5.0464,-2.408328 11.61504,-9.071164 19.71104,-19.993709 3.1617,-4.265535 7.90049,-8.853356 10.53065,-10.19516 4.60935,-2.351516 4.95075,-2.353117 9.45105,-0.04432 2.56794,1.317428 6.74588,5.305249 9.28431,8.861825 7.05215,9.880685 15.98477,18.987549 20.92256,21.330682 5.14687,2.442347 12.21263,10.545535 20.75512,23.802486 7.18668,11.152871 11.61354,15.451637 19.84798,19.273636 6.9992,3.248663 11.75871,8.711373 19.05852,21.874413 7.19454,12.97318 13.19746,18.53692 22.95371,21.27439 9.94733,2.79108 14.07825,2.81132 23.24809,0.11387 9.0732,-2.66898 17.07916,-10.61341 24.51878,-24.33033 5.24432,-9.66927 13.67408,-18.872646 17.28628,-18.872646 3.24089,0 16.4851,-13.176976 20.76782,-20.662379 5.43333,-9.496483 14.93369,-19.899718 21.58728,-23.638874 3.15955,-1.775588 9.50933,-8.146864 15.32285,-15.374733 5.46011,-6.78846 11.68956,-13.253868 13.84323,-14.367573 3.50209,-1.811003 4.32943,-1.811003 7.83152,0 2.15367,1.113705 8.38312,7.579113 13.84323,14.367573 5.81352,7.227869 12.1633,13.599145 15.32285,15.374733 6.65359,3.739156 16.15395,14.142391 21.58728,23.638874 4.28272,7.485403 17.52693,20.662379 20.76782,20.662379 3.6122,0 12.04196,9.203376 17.28628,18.872686 7.43962,13.71692 15.44558,21.66135 24.51878,24.33033 9.16984,2.69741 13.30076,2.67717 23.24809,-0.11387 9.75625,-2.73747 15.75917,-8.30121 22.95371,-21.27439 7.29981,-13.16304 12.05932,-18.62575 19.05852,-21.874413 8.23444,-3.821999 12.6613,-8.120765 19.84798,-19.273636 8.54249,-13.256951 15.60825,-21.360139 20.75512,-23.802486 4.93885,-2.343637 13.87065,-11.450354 20.92689,-21.336729 2.54083,-3.559902 6.7272,-7.547723 9.30306,-8.861826 4.5121,-2.301905 4.85774,-2.299819 9.45177,0.05707 2.62263,1.345486 7.35299,5.933309 10.51191,10.195159 8.09096,10.915903 14.66046,17.579104 19.70598,19.987013 5.08904,2.428678 12.01127,10.392185 21.53478,24.774172 6.45948,9.754769 15.65252,18.320923 19.66174,18.320923 2.9806,0 12.215,10.490763 16.79,19.074453 2.3604,4.42856 7.1367,11.16487 10.614,14.96959 5.1738,5.66091 7.7376,7.31477 14.1125,9.10347 9.7348,2.73144 13.9089,2.7415 23.0399,0.0555 8.8786,-2.61173 17.182,-10.66054 23.7114,-22.98442 5.9106,-11.15588 11.5379,-17.36405 18.4093,-20.309458 7.0189,-3.008639 15.1064,-11.225446 20.724,-21.055176 4.7136,-8.247884 16.5564,-20.668673 23.6973,-24.853954 2.5024,-1.466667 8.5107,-7.748841 13.3518,-13.960388 4.841,-6.211548 10.7248,-12.416778 13.075,-13.789402 4.179,-2.440628 4.3688,-2.440042 8.6066,0.02656 2.3833,1.387232 8.5364,7.77159 13.6735,14.187465 5.137,6.415873 12.037,13.369413 15.3333,15.452311 7.9255,5.008125 14.3972,12.006815 21.8405,23.619009 6.8385,10.668649 16.4494,19.878457 22.0211,21.10221 4.7198,1.036643 12.6478,9.320023 21.1623,22.110843 7.4829,11.24117 13.5224,17.13732 20.375,19.8916 2.5268,1.01563 6.0252,2.93705 7.7741,4.26985 2.2932,1.74764 5.5156,2.42327 11.5576,2.42327 13.4415,0 12.5959,-1.66369 12.5959,24.78392 0,22.94356 -0.029,23.17144 -3,23.8092 -12.7997,2.74737 -55.3156,4.01857 -59.6667,1.784 -1.8333,-0.94155 -6.4143,-6.51159 -10.1799,-12.37785 -8.8452,-13.77946 -16.7462,-22.53472 -22.9028,-25.37904 -7.4135,-3.42499 -13.1646,-9.55683 -19.1913,-20.46162 -7.6012,-13.75366 -14.6292,-20.6987 -23.6346,-23.35544 -9.089,-2.68138 -15.053,-2.69709 -23.9228,-0.063 -8.6794,2.57749 -14.8423,8.53854 -22.6789,21.93614 -7.0755,12.09626 -12.4148,18.0102 -19.4897,21.58726 -7.7213,3.9039 -12.0996,8.38157 -19.9499,20.40313 -3.8311,5.86666 -10.0941,13.36666 -13.9178,16.66666 -10.6146,9.16086 -21.5139,19.99522 -27.8791,27.71306 -10.9513,13.27837 -16.8751,12.99186 -27.684,-1.33895 -8.1513,-10.80711 -16.6611,-19.70742 -18.8429,-19.70742 -3.4262,0 -12.6815,-10.01879 -21.1313,-22.87463 C 991.19074,168.84609 982.24666,160 977.90223,160 c -3.58743,0 -10.28835,-7.4695 -17.19044,-19.1621 -9.04164,-15.31714 -15.153,-21.28809 -24.62048,-24.05485 -9.079,-2.65323 -13.77083,-2.66177 -22.59545,-0.0411 -9.47431,2.81356 -16.13812,9.22122 -24.72302,23.77267 -7.94218,13.46204 -11.1464,16.95236 -18.24632,19.87552 -6.53403,2.69017 -13.03083,9.47856 -21.76629,22.74323 -7.43245,11.28606 -14.36322,18.43527 -21.67354,22.35666 -2.21127,1.18616 -8.51223,7.78616 -14.00212,14.66667 -15.49,19.41368 -19.30416,19.46196 -34.30726,0.43433 -4.43014,-5.61852 -10.2345,-11.79999 -12.89858,-13.73659 -10.0391,-7.2977 -17.86738,-15.32433 -23.35478,-23.94649 -7.48046,-11.7538 -13.86479,-18.4535 -21.19063,-22.2374 -7.82708,-4.04279 -13.14154,-9.87036 -19.45843,-21.33719 -11.73192,-21.29651 -26.90617,-28.57221 -47.08963,-22.57837 -8.83853,2.62476 -16.32834,9.87425 -23.32685,22.57837 -6.31689,11.46683 -11.63135,17.2944 -19.45843,21.33719 -7.32584,3.7839 -13.71017,10.4836 -21.19063,22.2374 -5.4874,8.62216 -13.31568,16.64878 -23.35478,23.94649 -2.66408,1.9366 -8.46844,8.11806 -12.89858,13.73658 -15.0031,19.02763 -18.81726,18.97935 -34.30726,-0.43433 -5.48989,-6.88051 -11.79085,-13.48051 -14.00212,-14.66667 -7.31032,-3.92138 -14.24109,-11.0706 -21.67354,-22.35666 -8.73546,-13.26467 -15.23226,-20.05305 -21.76629,-22.74323 -7.09992,-2.92316 -10.30414,-6.41348 -18.24632,-19.87552 -8.5849,-14.55144 -15.24871,-20.9591 -24.72302,-23.77267 -8.82462,-2.62063 -13.51645,-2.61209 -22.59545,0.0411 -9.46748,2.76676 -15.57884,8.73771 -24.62048,24.05486 C 365.71942,152.5305 359.0185,160 355.43107,160 c -4.34443,0 -13.28851,8.84609 -21.35937,21.12536 -8.53803,12.99002 -17.71041,22.87463 -21.22643,22.87463 -2.09108,0 -10.78964,9.18302 -19.61029,20.70246 -7.47365,9.76033 -12.50379,12.12401 -18.29988,8.5992 z"
       id="path4251"
       inkscape:connector-curvature="0" />
    <path
       style="fill:#dfdfdf;stroke-width:1.33333325"
       d="m 271.49122,220.99999 c -3.02017,-3.11666 -7.35949,-8.41825 -9.64295,-11.78132 -3.11646,-4.58994 -6.4008,-7.24482 -13.17144,-10.64706 -9.85722,-4.95327 -12.01429,-7.32987 -21.11504,-23.26393 -7.58298,-13.27671 -11.60369,-17.185 -21.65146,-21.04614 L 198,151.2218 189.89156,136.61089 c -4.45964,-8.03599 -10.05476,-16.55105 -12.43359,-18.92235 -10.67612,-10.64229 -41.06028,-11.24925 -53.16705,-1.06207 -2.10954,1.77506 -7.3536,9.86701 -11.65348,17.98211 -7.98487,15.06975 -9.80574,17.08435 -17.970776,19.88271 -10.086907,3.45703 -13.67913,7.18551 -21.895754,22.72624 -4.342666,8.21361 -9.123869,15.59112 -10.624897,16.39444 C 59.306511,195.13163 6.4314498,194.18267 2.1376703,192.535 0.31937415,191.83725 0,188.96846 0,173.33333 c 0,-21.01381 -0.64494685,-19.97492 12.442383,-20.0424 5.022339,-0.0259 9.208575,-0.78748 10.752467,-1.95613 1.3905,-1.05256 6.303863,-3.1702 10.918582,-4.70588 9.67394,-3.21928 15.142296,-8.44716 21.715537,-20.76056 6.090363,-11.40884 13.868851,-20.00793 19.032837,-21.04072 8.3047,-1.66094 15.361248,-7.047371 19.859549,-15.159258 10.829495,-19.529061 14.804985,-24.319954 24.097435,-29.039973 8.88927,-4.515228 11.67011,-7.13901 19.42322,-18.326294 8.71191,-12.570748 14.54459,-13.062217 23.10439,-1.9468 11.60654,15.071818 13.46404,16.853904 21.64412,20.765422 8.93192,4.271024 11.46153,7.302344 21.52827,25.798126 5.53971,10.178169 9.17476,13.487147 18.4163,16.764267 8.31162,2.94737 11.25509,6.19026 19.04604,20.98353 7.34482,13.9462 10.06338,17.24179 17.3522,21.03526 7.52904,3.91849 26.02462,4.79253 35.641,1.68426 9.47292,-3.06188 14.52198,-8.29604 22.53054,-23.35644 8.31772,-15.64182 10.08826,-17.60041 18.03027,-19.94541 7.84129,-2.31526 15.59164,-9.842278 21.36672,-20.750999 7.37806,-13.936682 11.88006,-19.123102 19.5401,-22.510735 4.57286,-2.022338 8.89371,-5.340631 12.30311,-9.448449 12.19089,-14.688235 17.01227,-19.374148 19.93423,-19.374148 3.219,0 10.42268,7.230155 17.54028,17.604752 3.22337,4.69839 6.30733,7.146848 13.06262,10.370847 9.70836,4.633379 12.96182,8.286668 21.92711,24.621877 6.28317,11.448277 12.1625,16.998845 20.66484,19.509285 8.00905,2.36479 9.67002,4.26978 18.78621,21.54614 4.66732,8.84519 9.08075,15.4053 11.54437,17.15955 13.32955,9.49148 41.59707,8.46943 52.47958,-1.89747 2.45277,-2.33657 7.27844,-9.64832 10.72366,-16.24832 7.48583,-14.34049 11.05659,-18.4512 17.77648,-20.46453 9.03375,-2.70658 15.06851,-8.33486 21.07795,-19.658256 8.30265,-15.644396 11.45161,-19.247721 21.39892,-24.486609 7.46421,-3.931126 10.27718,-6.471132 16.76112,-15.13461 12.55472,-16.774934 15.9337,-16.774934 28.48842,0 6.48394,8.663478 9.29691,11.203484 16.76112,15.13461 9.94731,5.238888 13.09627,8.842213 21.39892,24.486609 6.00944,11.323396 12.0442,16.951676 21.07795,19.658256 6.71989,2.01333 10.29065,6.12404 17.77648,20.46453 3.44522,6.6 8.27089,13.91175 10.72366,16.24832 10.88251,10.3669 39.15003,11.38895 52.47958,1.89747 2.46362,-1.75425 6.87705,-8.31436 11.54437,-17.15955 9.11619,-17.27636 10.77716,-19.18135 18.78621,-21.54614 8.50234,-2.51044 14.38167,-8.061008 20.66484,-19.509285 8.96529,-16.335209 12.21875,-19.988498 21.92711,-24.621877 6.75529,-3.223999 9.83925,-5.672457 13.06262,-10.370847 7.1176,-10.374597 14.32128,-17.604752 17.54028,-17.604752 2.92196,0 7.74334,4.685913 19.93423,19.374148 3.4094,4.107818 7.73025,7.426111 12.30311,9.448449 7.66004,3.387633 12.16204,8.574053 19.5401,22.510735 5.77508,10.908721 13.52543,18.435739 21.36672,20.750999 7.94204,2.345 9.71254,4.30359 18.03024,19.94541 8.0086,15.0604 13.0577,20.29456 22.5306,23.35644 9.6163,3.10827 28.1119,2.23423 35.641,-1.68426 7.2888,-3.79347 10.0073,-7.08906 17.3522,-21.03526 7.7909,-14.79327 10.7344,-18.03616 19.046,-20.98353 9.2415,-3.27712 12.8766,-6.586098 18.4163,-16.764267 10.0668,-18.495782 12.5964,-21.527102 21.5283,-25.798126 8.1801,-3.911518 10.0376,-5.693604 21.6441,-20.765422 8.5598,-11.115417 14.3925,-10.623948 23.1044,1.9468 7.7531,11.187284 10.5339,13.811066 19.4232,18.326294 9.2925,4.720019 13.2679,9.510912 24.0974,29.039973 4.4983,8.111887 11.5549,13.498318 19.8596,15.159258 5.164,1.03279 12.9425,9.63188 19.0328,21.04072 6.5733,12.3134 12.0416,17.54128 21.7156,20.76056 4.6147,1.53568 9.5281,3.65332 10.9185,4.70588 1.5439,1.16865 5.7302,1.93024 10.7525,1.95613 13.0873,0.0675 12.4424,-0.97141 12.4424,20.0424 0,15.63513 -0.3194,18.50392 -2.1377,19.20167 -4.2938,1.64767 -57.1688,2.59663 -60.0083,1.07697 -1.501,-0.80332 -6.2822,-8.18083 -10.6249,-16.39444 -8.2166,-15.54073 -11.8089,-19.26921 -21.8958,-22.72624 -8.165,-2.79836 -9.9859,-4.81296 -17.9707,-19.88271 -4.2999,-8.1151 -9.544,-16.20705 -11.6535,-17.98211 -12.1068,-10.18718 -42.4909,-9.58022 -53.1671,1.06207 -2.3788,2.3713 -7.9739,10.88636 -12.4336,18.92235 l -8.1084,14.61091 -7.9103,3.03974 c -10.0478,3.86114 -14.0685,7.76943 -21.6515,21.04614 -9.1007,15.93406 -11.2578,18.31066 -21.115,23.26393 -6.6854,3.35941 -10.0942,6.09494 -13.1715,10.56994 -14.4592,21.02692 -20.1882,22.10007 -31.2931,5.86171 -6.7732,-9.90424 -11.4464,-14.22183 -18.8586,-17.42351 -7.7114,-3.33094 -10.3529,-6.29449 -18.6402,-20.91309 -7.86902,-13.88073 -13.66774,-19.6597 -22.09423,-22.01897 -7.29924,-2.04367 -10.99453,-6.18264 -18.05225,-20.21975 -10.41158,-20.70759 -19.04527,-25.93671 -40.9876,-24.82472 -18.91447,0.95855 -24.6995,5.23089 -35.56235,26.26336 -6.91968,13.39779 -9.47812,16.09431 -18.38268,19.37484 -9.17438,3.37996 -12.80598,6.99079 -19.95417,19.84007 -8.34335,14.99764 -11.86152,18.97169 -20.35063,22.98768 -7.28649,3.44706 -12.78581,8.78378 -20.29841,19.69828 -7.91912,11.50506 -13.8872,11.38484 -22.68296,-0.45695 -2.44183,-3.28744 -5.97245,-7.96771 -7.84583,-10.40059 -1.93752,-2.5162 -7.04621,-6.16218 -11.84854,-8.45613 -4.64334,-2.218 -9.34956,-5.03509 -10.45828,-6.26021 -1.10872,-1.22511 -5.8017,-8.78995 -10.42886,-16.81073 C 734.81215,159.8962 734.92145,159.99274 717.2743,152 c -3.58708,-1.62466 -5.87398,-4.75252 -12.18569,-16.66667 -4.27344,-8.06667 -9.54181,-16.28606 -11.70751,-18.26532 -11.19985,-10.23573 -42.22905,-10.23573 -53.4289,0 -2.1657,1.97926 -7.43407,10.19865 -11.70751,18.26532 -6.31171,11.91415 -8.59861,15.04201 -12.18569,16.66667 -17.64715,7.99274 -17.53785,7.8962 -26.47201,23.38284 -4.62716,8.02078 -9.32014,15.58562 -10.42886,16.81073 -1.10872,1.22512 -5.81494,4.04221 -10.45828,6.26021 -4.80233,2.29395 -9.91102,5.93993 -11.84854,8.45613 -1.87338,2.43288 -5.404,7.11315 -7.84583,10.40059 -8.79576,11.84179 -14.76384,11.96201 -22.68296,0.45695 -7.5126,-10.9145 -13.01192,-16.25122 -20.29841,-19.69828 -8.48911,-4.01599 -12.00728,-7.99004 -20.35063,-22.98768 -7.14819,-12.84928 -10.77979,-16.46011 -19.95417,-19.84007 -8.90456,-3.28053 -11.463,-5.97705 -18.38268,-19.37484 -10.86285,-21.03247 -16.64788,-25.30481 -35.56235,-26.26336 -21.94233,-1.11199 -30.57602,4.11713 -40.9876,24.82472 -7.05772,14.03711 -10.75301,18.17608 -18.05225,20.21975 -8.42649,2.35927 -14.22521,8.13824 -22.09422,22.01897 -8.28732,14.6186 -10.92878,17.58215 -18.64022,20.91309 -7.39706,3.19516 -12.08486,7.5187 -18.8035,17.34242 -9.19266,13.44113 -13.42224,14.62549 -21.70527,6.07782 z"
       id="path4249"
       inkscape:connector-curvature="0" />
  </g>
</svg>
